# xmcd CD database file
# Copyright (C) 1993-1998 Ti Kan
#
# Track frame offsets:
#  183
#  13483
#  30583
#  39945
#  54620
#  78058
#  91483
#  105083
#  120083
#  132445
#  145758
#  159670
#  174758
#  188083
#  201495
#  214983
#  228570
#  252495
#  266508
#  279158
#
# Disc length: 3897 seconds
#
# Revision: 1
# Processed by: cddbd v1.4b41PL1 Copyright (c) Steve Scherf et al.
# Submitted via: CDWizzard Release:4.35
#
DISCID=0b0f3714
DTITLE=John Lee Hooker - Down at the landing
DYEAR=1900
DGENRE=
TTITLE0=Down at the landing
TTITLE1=You know, I know
TTITLE2=Hey Boogie
TTITLE3=Sugar mama
TTITLE4=The waterfront
TTITLE5=Stella Mae
TTITLE6=Lonely boy boogie
TTITLE7=I'll never trust your love again
TTITLE8=Walkin' the boogie
TTITLE9=Union station blues
TTITLE10=Louise
TTITLE11=Ramblin' by myself
TTITLE12=Women and money
TTITLE13=Ground hog blues
TTITLE14=It's my own fault darling
TTITLE15=Love blues
TTITLE16=I put my trust in you
TTITLE17=Worried life blues
TTITLE18=Leave my wife alone
TTITLE19=One bourbon, one scotch, one beer
EXTD=
EXTT0=
EXTT1=
EXTT2=
EXTT3=
EXTT4=
EXTT5=
EXTT6=
EXTT7=
EXTT8=
EXTT9=
EXTT10=
EXTT11=
EXTT12=
EXTT13=
EXTT14=
EXTT15=
EXTT16=
EXTT17=
EXTT18=
EXTT19=
PLAYORDER=
